<svg height="512pt" viewBox="0 -26 512 512" width="512pt" xmlns="http://www.w3.org/2000/svg"><path d="m512 201.179688v109.550781c-8.5625 84.832031-119.878906 148.304687-256 148.304687s-247.4375-63.472656-256-148.304687v-109.550781c1.5 15.449218 6.445312 12.625 14.300781 26.484374v.085938c35.574219 62.765625 130.296875 107.699219 241.699219 107.699219 48.292969.433593 96.199219-8.65625 140.976562-26.75 21.074219-8.53125 40.886719-19.90625 58.878907-33.808594 16.898437-12.824219 31.113281-28.839844 41.84375-47.140625v-.085938c.242187-.394531.449219-.808593.617187-1.238281 7.503906-13.503906 12.269532-10.238281 13.683594-25.246093zm0 0" fill="#b19046"/><path d="m512 179.996094v21.183594c-1.53125 15.097656-6.191406 29.707031-13.683594 42.902343-.167968.429688-.375.84375-.617187 1.238281v.085938c-10.730469 18.300781-24.945313 34.3125-41.84375 47.140625-17.992188 13.898437-37.804688 25.273437-58.878907 33.808594-44.777343 18.09375-92.683593 27.183593-140.976562 26.746093-111.402344 0-206.125-44.929687-241.699219-107.695312v-.085938c-7.824219-13.542968-12.695312-28.582031-14.300781-44.140624v-21.183594c2.769531-23.882813 12.675781-46.371094 28.425781-64.53125-1.324219 5.5625 6.882813 11.210937 6.882813 16.949218l8.828125 39.722657c0 3.886719 9.09375 16.597656 9.625 20.394531 0 .085938-8.828125-8.742188-8.828125-8.652344l8.828125.175782c9.53125 74.859374 81.828125 107.253906 202.238281 107.253906 7.945312 0 15.714844-.175782 23.394531-.703125h.085938c27.726562-1.359375 55.210937-5.863281 81.921875-13.417969 24.539062-7.152344 37.605468-25.601562 55.964844-37.519531 19.863281-12.710938 17.921874-1.5 28.160156-18.890625 6.796875-11.476563 37.695312-23.921875 39.285156-37.074219 0-.089844-26.484375-.089844-26.484375-.175781v-.089844c.457031-3.75.695313-7.523438.707031-11.300781l26.480469-39.722657c.019531-5.707031-.632813-11.394531-1.941406-16.949218 15.75 18.160156 25.65625 40.648437 28.425781 64.53125zm0 0" fill="#f3d55b"/><path d="m185.996094 103.371094h.089844c4.589843-.882813 9.269531-1.589844 14.035156-2.296875 18.507812-2.640625 37.183594-3.96875 55.878906-3.972657 13.242188 0 26.128906.621094 38.753906 1.855469 10.679688 1.058594 21.097656 2.558594 31.25 4.414063l126.675782 40.253906v.089844c11.917968 11.386718 20.921874 6.265625 26.480468 19.59375 4.167969-9.769532 6.328125-20.273438 6.355469-30.894532.019531-5.707031-.632813-11.394531-1.941406-16.949218-14.386719-65.148438-110.785157-115.464844-227.574219-115.464844-10.769531 0-21.273438.441406-31.601562 1.234375-27.101563 2.046875-53.878907 7.199219-79.800782 15.363281-22.417968 6.949219-43.726562 17.058594-63.296875 30.011719-18.382812 11.695313-33.675781 27.65625-44.578125 46.523437-3.792968 7.019532-6.585937 14.535157-8.296875 22.332032-1.308593 5.554687-1.960937 11.242187-1.941406 16.949218.027344 10.621094 2.1875 21.125 6.355469 30.894532 5.472656-13.328125 14.476562-8.296875 26.480468-19.59375v-.089844zm0 0" fill="#af8066"/><path d="m452.679688 125.96875v.089844c11.304687 10.453125 20.320312 23.136718 26.480468 37.25-5.738281 13.949218-15.359375 44.757812-28.160156 56.5-16.695312 15.0625-35.828125 27.179687-56.582031 35.839844-3.089844 1.324218-6.269531 2.648437-9.445313 3.882812-6.976562 2.738281-14.214844 5.296875-21.71875 7.589844-2.824218.882812-5.738281 1.679687-8.648437 2.472656-2.386719.707031-4.589844 1.238281-6.976563 1.855469-.085937 0-.261718.085937-.351562.085937-6.003906 1.503906-12.09375 2.828125-18.273438 4.0625-2.558594.527344-5.121094.96875-7.679687 1.410156-21.582031 3.660157-43.433594 5.492188-65.324219 5.476563-9.003906 0-17.832031-.265625-26.570312-.882813h-.089844c-8.03125-.53125-15.890625-1.324218-23.65625-2.296874-3.886719-.53125-7.679688-1.058594-11.476563-1.675782-3.796875-.621094-7.503906-1.324218-11.210937-2.03125-4.707032-.882812-9.296875-1.855468-13.769532-2.914062 0 0 0-.085938-.089843 0-4.414063-1.148438-8.828125-2.292969-13.152344-3.441406-6.621094-1.855469-12.976563-3.886719-19.15625-6.003907-6.179687-2.117187-12.183594-4.589843-17.921875-7.0625-3.089844-1.324219-6.089844-2.648437-9.089844-4.058593-3.707031-1.765626-7.328125-3.621094-10.859375-5.5625-3.265625-1.765626-6.445312-3.53125-9.535156-5.472657-1.5-.882812-2.910156-1.765625-4.414063-2.738281-1.941406-1.234375-3.792968-2.46875-5.648437-3.792969-1.851563-1.324219-3.617187-2.472656-5.382813-3.886719-1.789062-1.25-3.496093-2.605468-5.121093-4.058593-1.441407-1.042969-2.828125-2.164063-4.148438-3.355469-4.917969-4.253906-9.519531-8.855469-13.773437-13.769531-1.339844-1.4375-2.605469-2.9375-3.792969-4.503907-1.226563-1.5-2.375-3.0625-3.445313-4.679687-1.136718-1.503906-2.199218-3.0625-3.175781-4.675781-2.027343-3.121094-3.855469-6.363282-5.472656-9.710938-.796875-1.589844-1.503906-20.921875-2.207031-22.601562 6.074218-14.160156 15.101562-26.859375 26.480468-37.25v-.089844l126.675782-57.90625h.089844c4.589843-.882812 9.269531-1.589844 14.035156-2.296875 18.507812-2.644531 37.183594-3.972656 55.878906-3.972656 13.242188 0 26.128906.617187 38.753906 1.855469 10.679688 1.058593 21.097656 2.558593 31.25 4.414062zm0 0" fill="#7f5b53"/><path d="m283.1875 143.09375c-.226562-1.34375-.375-2.699219-.441406-4.058594-2.046875-23.910156 8.195312-47.21875 27.191406-61.882812 1.527344-1.136719 3.152344-2.140625 4.855469-3 3.441406-1.765625 7.238281-3.796875 11.210937-6.089844 10.722656-6.226562 21.09375-13.03125 31.070313-20.394531 6.355469-4.679688 15.011719-4.679688 21.363281 0 13.375 9.933593 27.511719 18.789062 42.285156 26.484375 18.222656 11.269531 30.066406 30.472656 31.957032 51.816406 1.171874 12.417969-.707032 24.933594-5.472657 36.457031-3.378906 8.632813-9.09375 16.152344-16.507812 21.71875-9.542969 6.902344-20.640625 11.339844-32.308594 12.921875-7.730469.914063-15.515625 1.285156-23.296875 1.113282-12.277344.742187-24.597656.417968-36.820312-.972657" fill="#f9eab0"/><path d="m339.484375 111.226562c-3.828125-.039062-7.589844-.972656-10.992187-2.726562-4.359376-2.183594-6.128907-7.484375-3.945313-11.847656 2.179687-4.359375 7.484375-6.125 11.847656-3.945313 1.386719.929688 3.140625 1.128907 4.703125.53125 4.507813-3.199219 7.832032-7.800781 9.453125-13.082031 1-2.996094 3.519531-5.234375 6.613281-5.867188 3.09375-.632812 6.292969.429688 8.386719 2.792969 2.097657 2.363281 2.773438 5.664063 1.773438 8.660157-3.183594 10.140624-10.132813 18.671874-19.421875 23.835937-2.667969 1.101563-5.53125 1.664063-8.417969 1.648437zm0 0" fill="#cbb292"/><path d="m228.8125 143.09375c4.09375-27.21875-8.3125-54.277344-31.605469-68.941406-3.441406-1.765625-7.238281-3.796875-11.210937-6.089844-10.722656-6.226562-21.09375-13.03125-31.070313-20.394531-6.355469-4.679688-15.011719-4.679688-21.363281 0-13.375 9.933593-27.511719 18.789062-42.285156 26.484375-18.222656 11.269531-30.066406 30.472656-31.957032 51.816406-1.171874 12.417969.707032 24.933594 5.472657 36.457031 7.441406 16.980469 22.667969 29.285157 40.828125 33 11.105468 2.496094 22.480468 3.570313 33.855468 3.195313 11.445313.363281 22.90625-.109375 34.285157-1.414063" fill="#f9eab0"/><path d="m115.96875 111.226562c-3.824219-.039062-7.585938-.972656-10.980469-2.726562-2.824219-1.410156-4.675781-4.21875-4.863281-7.371094-.191406-3.148437 1.316406-6.15625 3.949219-7.894531 2.632812-1.738281 5.992187-1.9375 8.8125-.527344 1.386719.929688 3.136719 1.128907 4.695312.53125 4.511719-3.199219 7.839844-7.796875 9.464844-13.082031.996094-2.996094 3.519531-5.234375 6.613281-5.867188 3.09375-.632812 6.289063.429688 8.386719 2.792969 2.09375 2.363281 2.769531 5.664063 1.773437 8.660157-3.191406 10.136718-10.140624 18.664062-19.421874 23.835937-2.671876 1.105469-5.539063 1.664063-8.429688 1.648437zm0 0" fill="#cbb292"/><path d="m158.898438 414.898438c-23.492188 0-50.726563-10.59375-80.949219-31.585938-4.007813-2.78125-5.003907-8.28125-2.226563-12.289062 2.78125-4.007813 8.28125-5.003907 12.289063-2.222657 26.828125 18.605469 51.339843 28.441407 70.886719 28.441407 4.875 0 8.824218 3.953124 8.824218 8.828124s-3.949218 8.828126-8.824218 8.828126zm0 0" fill="#f3d55b"/><path d="m53.320312 361.578125c-2.144531 0-4.21875-.78125-5.828124-2.199219-6.089844-5.355468-9.59375-8.828125-9.59375-8.828125-3.449219-3.445312-3.453126-9.035156-.007813-12.484375 3.449219-3.449218 9.039063-3.453125 12.488281-.003906.105469.105469 3.292969 3.28125 8.765625 8.09375 2.757813 2.425781 3.726563 6.304688 2.433594 9.742188-1.296875 3.4375-4.585937 5.714843-8.257813 5.714843zm0 0" fill="#f3d55b"/><path d="m182.996094 257.941406c-2.648438-3.519531-4.816406-7.378906-6.445313-11.476562-4.433593-10.875-6.363281-22.613282-5.648437-34.339844.328125-5.066406 1.277344-10.078125 2.824218-14.917969 4.339844-16.3125 14.847657-30.304687 29.308594-39.015625.882813-.441406 1.765625-.882812 2.648438-1.414062 7.0625-3.707032 15.359375-8.5625 23.128906-13.683594 6-3.792969 11.738281-7.765625 16.507812-11.386719 6.320313-4.765625 15.039063-4.765625 21.359376 0 4.769531 3.621094 10.507812 7.59375 16.507812 11.386719 4.59375 3.003906 9.269531 5.914062 13.859375 8.652344 4.238281 2.382812 8.300781 4.589844 11.917969 6.445312 10.148437 5.886719 18.367187 14.597656 23.660156 25.070313 2.394531 4.425781 4.289062 9.101562 5.648438 13.945312 4.757812 16.257813 3.757812 33.65625-2.824219 49.257813-1.628907 4.097656-3.796875 7.957031-6.445313 11.476562l-38.839844 17.65625h-65.792968zm0 0" fill="#f5efca"/><path d="m227.75 195.292969c-3.820312-.042969-7.582031-.980469-10.980469-2.738281-2.847656-1.394532-4.726562-4.207032-4.925781-7.371094-.199219-3.164063 1.316406-6.191406 3.964844-7.933594 2.648437-1.738281 6.027344-1.925781 8.851562-.488281 1.394532.929687 3.144532 1.125 4.707032.53125 4.503906-3.203125 7.820312-7.8125 9.429687-13.101563.996094-2.996094 3.515625-5.230468 6.609375-5.863281s6.292969.429687 8.386719 2.792969c2.097656 2.363281 2.773437 5.664062 1.773437 8.660156-3.191406 10.132812-10.140625 18.660156-19.417968 23.835938-2.660157 1.109374-5.515626 1.675781-8.398438 1.675781zm0 0" fill="#cbb292"/><path d="m485.515625 132.414062v39.722657c-.011719 3.777343-.246094 7.550781-.703125 11.300781v.265625c-1.636719 13.113281-5.996094 25.742187-12.800781 37.074219-11.503907 18.507812-27.199219 34.050781-45.816407 45.375-20.09375 12.652344-41.917968 22.316406-64.792968 28.6875-26.710938 7.558594-54.195313 12.058594-81.921875 13.417968h-.085938c-7.679687.53125-15.449219.707032-23.394531.707032-120.410156 0-219.1875-50.050782-228.722656-124.910156v-.351563c-.53125-3.832031-.796875-7.695313-.792969-11.566406v-39.722657c.027344 10.621094 2.1875 21.125 6.355469 30.894532 22.066406 53.320312 100.191406 94.191406 196.5 100.636718h.089844c8.738281.617188 17.566406.882813 26.570312.882813 21.890625.015625 43.742188-1.8125 65.324219-5.472656 25.132812-4.167969 49.671875-11.339844 73.09375-21.363281 20.753906-8.65625 39.886719-20.777344 56.582031-35.839844 12.117188-10.730469 21.730469-23.988282 28.160156-38.84375 4.167969-9.769532 6.328125-20.273438 6.355469-30.894532zm0 0" fill="#b19046"/></svg>