<?xml version="1.0" encoding="iso-8859-1"?>
<!-- Generator: Adobe Illustrator 19.0.0, SVG Export Plug-In . SVG Version: 6.00 Build 0)  -->
<svg version="1.1" id="Capa_1" xmlns="http://www.w3.org/2000/svg" xmlns:xlink="http://www.w3.org/1999/xlink" x="0px" y="0px"
	 viewBox="0 0 512 512" style="enable-background:new 0 0 512 512;" xml:space="preserve">
<path style="fill:#F4DDC6;" d="M341.049,252.283c-5.279-1.847-11.185-2.047-16.956,0.089c-0.015,0.006-0.03,0.011-0.045,0.017
	c-1.97,0.728-4.149-0.453-4.602-2.504c-2.139-9.689-11.765-33.251-13.081-35.885c-6.269-12.552-14.38-24.171-23.986-34.396
	c-16.347-17.4-36.976-30.647-59.636-38.18c-11.715-3.895-23.898-6.223-36.213-7.041c-12.609-0.837-23.145,0.325-35.554,3.042
	c-9.229,2.021-18.255,4.957-26.907,8.751c-21.761,9.545-41.022,24.522-55.687,43.214c-7.346,9.364-13.532,19.634-18.361,30.512
	c-0.988,2.225-8.193,21.493-10.126,30.046c-0.463,2.05-2.629,3.229-4.602,2.503c-0.073-0.027-0.146-0.054-0.218-0.081
	c-11.497-4.257-26.77,1.294-32.418,12.456c-3.431,6.78-3.546,14.885-0.304,21.758c8.949,18.972,38.14,22.985,56.314,25.7
	c80.264,11.99,161.604,11.984,241.834,0c18.174-2.715,47.366-6.729,56.314-25.7C363.671,272.051,354.351,256.938,341.049,252.283z"
	/>
<path style="fill:#EFCCAC;" d="M356.82,286.589c-4.566,9.668-14.389,15.452-25.327,19.15c1.88-2.055,3.46-4.349,4.669-6.91
	c4.37-9.262,3.041-18.097-5.794-23.744c-6.49-4.148-16.196-6.051-23.356-2.538c-0.02,0.01-0.03,0.01-0.05,0.02
	c-1.973,0.723-4.152-0.454-4.597-2.51c-2.138-9.689-15.339-41.178-16.661-43.811c-6.27-12.55-14.378-24.17-23.984-34.396
	c-16.341-17.394-36.979-30.647-59.641-38.177c-11.713-3.894-23.891-6.228-36.204-7.045c-12.612-0.837-23.148,0.331-35.553,3.047
	c-9.234,2.014-18.262,4.958-26.908,8.749c-1.684,0.733-3.347,1.508-4.989,2.314c8.026-5.712,16.62-10.608,25.647-14.564
	c8.646-3.791,17.673-6.724,26.908-8.749c12.405-2.717,22.941-3.884,35.553-3.047c12.312,0.826,24.49,3.15,36.204,7.044
	c22.662,7.53,43.3,20.782,59.641,38.177c9.606,10.226,17.715,21.846,23.984,34.396c1.322,2.644,10.949,26.205,13.087,35.894
	c0.444,2.045,2.624,3.223,4.597,2.5c0.021-0.01,0.031-0.01,0.052-0.021c5.764-2.128,11.672-1.932,16.95-0.083
	C354.351,256.934,363.668,272.056,356.82,286.589z"/>
<path d="M37.965,245.18l0.001,0.001L37.965,245.18z"/>
<path d="M37.957,245.178c0.002,0.001,0.005,0.001,0.007,0.002C37.962,245.179,37.96,245.178,37.957,245.178z"/>
<path style="fill:#F9E8D4;" d="M493.92,308.2c-5.279-1.847-11.185-2.047-16.956,0.089c-0.015,0.006-0.03,0.011-0.045,0.017
	c-1.97,0.728-4.149-0.453-4.602-2.504c-2.139-9.689-11.765-33.251-13.081-35.885c-6.269-12.552-14.38-24.171-23.986-34.396
	c-16.347-17.4-36.976-30.647-59.636-38.18c-11.715-3.895-23.898-6.223-36.213-7.041c-12.609-0.837-23.145,0.325-35.554,3.042
	c-9.229,2.021-18.255,4.957-26.907,8.751c-21.761,9.545-41.022,24.522-55.687,43.214c-7.346,9.364-13.532,19.634-18.361,30.512
	c-0.988,2.225-8.193,21.493-10.126,30.046c-0.463,2.05-2.629,3.229-4.602,2.503c-0.073-0.027-0.146-0.054-0.218-0.081
	c-11.497-4.257-26.77,1.294-32.418,12.456c-3.431,6.78-3.546,14.885-0.304,21.758c8.949,18.972,38.14,22.985,56.314,25.7
	c19.444,2.905,38.984,5.167,58.579,6.764c9.944,0.811,19.903,1.451,29.869,1.927c10.978,0.524,21.697,0.888,32.619,0.984
	c13.535,0.119,27.155-0.652,40.663-1.429c26.807-1.543,53.547-4.279,80.104-8.246c18.174-2.715,47.365-6.729,56.314-25.7
	C516.543,327.967,507.223,312.855,493.92,308.2z"/>
<path style="fill:#F4DBC3;" d="M509.692,342.506c-4.566,9.668-14.389,15.452-25.327,19.15c1.88-2.056,3.46-4.349,4.669-6.91
	c4.37-9.262,3.041-18.097-5.794-23.744c-6.49-4.148-16.196-6.051-23.356-2.538c-0.02,0.01-0.03,0.01-0.05,0.02
	c-1.973,0.723-4.152-0.454-4.597-2.51c-2.138-9.689-15.339-41.178-16.661-43.811c-6.27-12.55-14.378-24.17-23.984-34.396
	c-16.341-17.394-36.978-30.647-59.641-38.177c-11.713-3.894-23.891-6.228-36.204-7.045c-12.612-0.837-23.148,0.331-35.553,3.047
	c-9.234,2.014-18.262,4.958-26.908,8.749c-1.684,0.733-3.347,1.508-4.989,2.314c8.026-5.712,16.62-10.608,25.647-14.564
	c8.646-3.791,17.673-6.724,26.908-8.749c12.405-2.717,22.941-3.884,35.553-3.047c12.312,0.826,24.49,3.15,36.204,7.044
	c22.662,7.53,43.3,20.782,59.641,38.177c9.606,10.226,17.715,21.846,23.984,34.396c1.322,2.644,10.949,26.205,13.087,35.894
	c0.444,2.045,2.624,3.223,4.597,2.5c0.021-0.01,0.031-0.01,0.052-0.021c5.764-2.128,11.672-1.932,16.95-0.083
	C507.223,312.85,516.54,327.972,509.692,342.506z"/>
<g>
	<path style="fill:#E59770;" d="M187.31,194.359v-30.272c0-4.279-3.468-7.747-7.747-7.747c-4.279,0-7.747,3.468-7.747,7.747v30.272
		c0,4.279,3.468,7.747,7.747,7.747S187.31,198.638,187.31,194.359z"/>
	<path style="fill:#E59770;" d="M214.979,209.076c3.402,0,6.522-2.259,7.467-5.698l8.013-29.192c1.133-4.126-1.294-8.388-5.42-9.521
		c-4.128-1.132-8.388,1.294-9.521,5.42l-8.013,29.192c-1.133,4.126,1.294,8.388,5.42,9.521
		C213.611,208.986,214.3,209.076,214.979,209.076z"/>
	<path style="fill:#E59770;" d="M144.148,209.076c0.678,0,1.369-0.09,2.055-0.278c4.126-1.133,6.553-5.396,5.42-9.521l-8.014-29.192
		c-1.132-4.125-5.394-6.556-9.521-5.42c-4.126,1.133-6.553,5.396-5.42,9.521l8.014,29.192
		C137.626,206.817,140.746,209.076,144.148,209.076z"/>
	<path style="fill:#E59770;" d="M340.182,220.004c0-4.279-3.468-7.747-7.747-7.747c-4.279,0-7.747,3.468-7.747,7.747v30.272
		c0,4.279,3.468,7.747,7.747,7.747c4.279,0,7.747-3.468,7.747-7.747V220.004z"/>
	<path style="fill:#E59770;" d="M367.851,264.992c3.402,0,6.522-2.259,7.466-5.698l8.013-29.192c1.133-4.126-1.294-8.388-5.42-9.521
		c-4.129-1.133-8.388,1.294-9.521,5.42l-8.013,29.192c-1.133,4.126,1.294,8.388,5.42,9.521
		C366.483,264.902,367.172,264.992,367.851,264.992z"/>
	<path style="fill:#E59770;" d="M286.959,220.581c-4.126,1.133-6.553,5.396-5.42,9.521l8.014,29.192
		c0.944,3.44,4.064,5.698,7.466,5.698c0.678,0,1.369-0.09,2.055-0.278c4.126-1.133,6.553-5.396,5.42-9.521l-8.013-29.192
		C295.348,221.876,291.087,219.447,286.959,220.581z"/>
</g>
<g>
</g>
<g>
</g>
<g>
</g>
<g>
</g>
<g>
</g>
<g>
</g>
<g>
</g>
<g>
</g>
<g>
</g>
<g>
</g>
<g>
</g>
<g>
</g>
<g>
</g>
<g>
</g>
<g>
</g>
</svg>
