<?xml version="1.0" encoding="iso-8859-1"?>
<!-- Generator: Adobe Illustrator 21.0.0, SVG Export Plug-In . SVG Version: 6.00 Build 0)  -->
<svg xmlns="http://www.w3.org/2000/svg" xmlns:xlink="http://www.w3.org/1999/xlink" version="1.1" id="Capa_1" x="0px" y="0px" viewBox="0 0 512.001 512.001" style="enable-background:new 0 0 512.001 512.001;" xml:space="preserve" width="512" height="512">
<g>
	<g>
		<rect x="31.001" y="137.19" style="fill:#F0F0F0;" width="450" height="350"/>
	</g>
	<g>
		<rect x="31.001" y="137.19" style="fill:#CDCFCF;" width="41" height="350"/>
	</g>
	<g>
		<path style="fill:#A0A5A9;" d="M190.69,487.19H82.001c-5.523,0-10-4.477-10-10V247.124c0-5.523,4.477-10,10-10H190.69    c5.523,0,10,4.477,10,10V477.19C200.69,482.713,196.213,487.19,190.69,487.19z"/>
	</g>
	<g>
		<path style="fill:#909498;" d="M112.001,477.19V247.124c0-5.523,4.477-10,10-10h-40c-5.523,0-10,4.477-10,10V477.19    c0,5.523,4.477,10,10,10h40C116.478,487.19,112.001,482.713,112.001,477.19z"/>
	</g>
	<g>
		<path style="fill:#CDCFCF;" d="M504.501,496.595v-34.189c0-4.366-3.539-7.906-7.906-7.906H15.407    c-4.366,0-7.906,3.539-7.906,7.906v34.189c0,4.366,3.539,7.906,7.906,7.906h481.189    C500.962,504.5,504.501,500.961,504.501,496.595z"/>
	</g>
	<g>
		<path style="fill:#B8BABA;" d="M47.501,496.595v-34.188c0-4.366,3.539-7.906,7.906-7.906h-40c-4.366,0-7.906,3.54-7.906,7.906    v34.188c0,4.366,3.539,7.906,7.906,7.906h40C51.041,504.5,47.501,500.961,47.501,496.595z"/>
	</g>
	<g>
		<path style="fill:#F0F0F0;" d="M454.431,13.252c-2.163-3.571-6.035-5.752-10.21-5.752H139.033H67.779    c-4.175,0-8.046,2.181-10.21,5.752L7.5,95.886h497L454.431,13.252z"/>
	</g>
	<g>
		<path style="fill:#FF92B8;" d="M67.779,7.5h71.253L106.9,95.886H7.5l50.069-82.634C59.733,9.681,63.604,7.5,67.779,7.5z"/>
	</g>
	<g>
		<polygon style="fill:#CDCFCF;" points="139.033,7.5 106.9,95.886 146.9,95.886 179.033,7.5   "/>
	</g>
	<g>
		<path style="fill:#FF6477;" d="M107.779,7.5h-40c-4.175,0-8.047,2.181-10.21,5.752L7.5,95.886h40l50.069-82.634    C99.733,9.681,103.604,7.5,107.779,7.5z"/>
	</g>
	<g>
		<polygon style="fill:#FF92B8;" points="217.011,7.5 294.989,7.5 305.7,95.886 206.3,95.886   "/>
	</g>
	<g>
		<polygon style="fill:#CDCFCF;" points="294.989,7.5 305.7,95.886 345.7,95.886 334.989,7.5   "/>
	</g>
	<g>
		<polygon style="fill:#FF6477;" points="217.011,7.5 206.3,95.886 246.3,95.886 257.011,7.5   "/>
	</g>
	<g>
		<path style="fill:#FF92B8;" d="M372.967,7.5h71.253c4.175,0,8.047,2.181,10.21,5.752L504.5,95.886h-99.4L372.967,7.5z"/>
	</g>
	<g>
		<polygon style="fill:#FF6477;" points="372.967,7.5 405.1,95.886 445.1,95.886 412.967,7.5   "/>
	</g>
	<g>
		<path style="fill:#FF6477;" d="M7.5,95.886h99.4v51.538c0,27.449-22.251,49.7-49.7,49.7h0c-27.449,0-49.7-22.251-49.7-49.7V95.886    z"/>
	</g>
	<g>
		<path style="fill:#FF315D;" d="M47.5,147.424V95.886h-40v51.538c0,27.448,22.251,49.7,49.7,49.7h0c7.117,0,13.879-1.507,20-4.202    C59.714,185.225,47.5,167.756,47.5,147.424z"/>
	</g>
	<g>
		<path style="fill:#CDCFCF;" d="M106.9,95.886h99.4v51.538c0,27.449-22.251,49.7-49.7,49.7h0c-27.449,0-49.7-22.251-49.7-49.7    V95.886z"/>
	</g>
	<g>
		<path style="fill:#B8BABA;" d="M146.9,147.424V95.886h-40v51.538c0,27.448,22.251,49.7,49.7,49.7h0c7.117,0,13.879-1.507,20-4.202    C159.114,185.225,146.9,167.756,146.9,147.424z"/>
	</g>
	<g>
		<path style="fill:#FF6477;" d="M206.3,95.886h99.4v51.538c0,27.449-22.251,49.7-49.7,49.7h0c-27.449,0-49.7-22.251-49.7-49.7    V95.886z"/>
	</g>
	<g>
		<path style="fill:#FF315D;" d="M246.3,147.424V95.886h-40v51.538c0,27.448,22.251,49.7,49.7,49.7h0c7.117,0,13.879-1.507,20-4.202    C258.514,185.225,246.3,167.756,246.3,147.424z"/>
	</g>
	<g>
		<path style="fill:#CDCFCF;" d="M305.7,95.886h99.4v51.538c0,27.449-22.251,49.7-49.7,49.7h0c-27.449,0-49.7-22.251-49.7-49.7    V95.886z"/>
	</g>
	<g>
		<path style="fill:#B8BABA;" d="M345.7,147.424V95.886h-40v51.538c0,27.448,22.251,49.7,49.7,49.7h0c7.117,0,13.879-1.507,20-4.202    C357.914,185.225,345.7,167.756,345.7,147.424z"/>
	</g>
	<g>
		<path style="fill:#FF6477;" d="M405.1,95.886h99.4v51.538c0,27.449-22.251,49.7-49.7,49.7h0c-27.449,0-49.7-22.251-49.7-49.7    V95.886z"/>
	</g>
	<g>
		<path style="fill:#FF315D;" d="M445.1,147.424V95.886h-40v51.538c0,27.448,22.251,49.7,49.7,49.7h0c7.117,0,13.879-1.507,20-4.202    C457.314,185.225,445.1,167.756,445.1,147.424z"/>
	</g>
	<g>
		<path style="fill:#78DCE3;" d="M431.001,375H250.69c-5.523,0-10-4.477-10-10V247.124c0-5.523,4.477-10,10-10h180.311    c5.523,0,10,4.477,10,10V365C441.001,370.523,436.524,375,431.001,375z"/>
	</g>
	<g>
		<path style="fill:#4EB3DA;" d="M280.69,365V247.124c0-5.523,4.477-10,10-10h-40c-5.523,0-10,4.477-10,10V365    c0,5.523,4.477,10,10,10h40C285.167,375,280.69,370.523,280.69,365z"/>
	</g>
	<g>
		<path style="fill:#CDCFCF;" d="M455.846,394.622v-39.244c0-2.97-2.408-5.378-5.378-5.378H231.224c-2.97,0-5.378,2.408-5.378,5.378    v39.244c0,2.97,2.408,5.378,5.378,5.378h219.244C453.438,400,455.846,397.593,455.846,394.622z"/>
	</g>
	<g>
		<path style="fill:#B8BABA;" d="M265.846,394.622v-39.244c0-2.97,2.408-5.378,5.378-5.378h-40c-2.97,0-5.378,2.408-5.378,5.378    v39.244c0,2.97,2.408,5.378,5.378,5.378h40C268.253,400,265.846,397.593,265.846,394.622z"/>
	</g>
	<g>
		<path d="M496.595,447h-8.094V193.602C502.733,183.187,512,166.371,512,147.424V95.886c0-0.022-0.003-0.044-0.003-0.066    c-0.001-0.075-0.008-0.149-0.011-0.223c-0.009-0.231-0.026-0.459-0.056-0.685c-0.011-0.088-0.025-0.174-0.04-0.261    c-0.039-0.235-0.089-0.465-0.149-0.692c-0.016-0.062-0.03-0.124-0.048-0.186c-0.087-0.295-0.189-0.583-0.309-0.862    c-0.012-0.027-0.027-0.053-0.039-0.08c-0.112-0.251-0.239-0.493-0.378-0.729c-0.02-0.033-0.033-0.069-0.053-0.102l-50.07-82.634    C457.345,3.589,450.975,0,444.221,0H67.779c-6.754,0-13.124,3.588-16.625,9.365L1.085,92c-0.02,0.033-0.033,0.069-0.053,0.102    c-0.138,0.236-0.265,0.478-0.378,0.729c-0.012,0.027-0.027,0.053-0.039,0.08c-0.121,0.279-0.223,0.567-0.309,0.863    c-0.018,0.061-0.031,0.122-0.047,0.184c-0.06,0.227-0.11,0.458-0.149,0.693c-0.015,0.087-0.028,0.174-0.04,0.261    c-0.029,0.225-0.047,0.454-0.056,0.685c-0.003,0.075-0.011,0.149-0.011,0.223C0.003,95.842,0,95.864,0,95.886v51.538    c0,18.948,9.268,35.764,23.501,46.179V447h-8.094c-8.495,0-15.406,6.911-15.406,15.406v34.188c0,8.495,6.911,15.406,15.406,15.406    h481.188c8.495,0,15.406-6.911,15.406-15.406v-34.188C512.001,453.912,505.09,447,496.595,447z M454.8,189.624    c-23.269,0-42.2-18.931-42.2-42.2v-44.038H497v44.038C497,170.693,478.069,189.624,454.8,189.624z M208.547,15l-2.641,21.791    c-0.499,4.112,2.431,7.85,6.543,8.348c0.307,0.037,0.611,0.056,0.912,0.056c3.739,0,6.975-2.793,7.436-6.599L223.657,15h64.687    l8.893,73.386h-82.473l2.639-21.775c0.499-4.112-2.431-7.85-6.543-8.348c-4.12-0.5-7.85,2.431-8.348,6.543l-2.858,23.58h-82.047    L144.286,15H208.547z M367.714,15l26.68,73.386h-82.047L303.453,15H367.714z M114.4,103.386h84.4v44.038    c0,23.269-18.931,42.2-42.2,42.2s-42.2-18.931-42.2-42.2V103.386z M213.8,103.386h84.4v44.038c0,23.269-18.931,42.2-42.2,42.2    s-42.2-18.931-42.2-42.2V103.386z M313.2,103.386h84.4v44.038c0,23.269-18.931,42.2-42.2,42.2s-42.2-18.931-42.2-42.2V103.386z     M448.016,17.139l43.17,71.248h-80.833L383.674,15h60.546C445.763,15,447.217,15.82,448.016,17.139z M63.983,17.139    C64.783,15.82,66.237,15,67.779,15h60.546l-26.679,73.386H20.813L63.983,17.139z M15,147.424v-44.038h84.4v44.038    c0,23.269-18.931,42.2-42.2,42.2S15,170.693,15,147.424z M38.501,201.469c5.864,2.035,12.151,3.155,18.699,3.155    c21.265,0,39.843-11.673,49.7-28.939c9.857,17.266,28.435,28.939,49.7,28.939s39.843-11.673,49.7-28.939    c9.857,17.266,28.435,28.939,49.7,28.939s39.843-11.673,49.7-28.939c9.857,17.266,28.435,28.939,49.7,28.939    s39.843-11.673,49.7-28.939c9.857,17.266,28.435,28.939,49.7,28.939c6.548,0,12.837-1.121,18.701-3.156V447H208.19V247.124    c0-9.649-7.851-17.5-17.5-17.5H82.001c-9.649,0-17.5,7.851-17.5,17.5V447h-26V201.469z M79.501,447V247.124    c0-1.378,1.122-2.5,2.5-2.5H190.69c1.378,0,2.5,1.122,2.5,2.5V447H79.501z M497.001,496.595c0,0.224-0.182,0.406-0.406,0.406    H15.407c-0.224,0-0.406-0.182-0.406-0.406v-34.188c0-0.224,0.182-0.406,0.406-0.406h15.585c0.003,0,0.006,0,0.01,0s0.006,0,0.01,0    h40.981c0.003,0,0.006,0,0.01,0s0.006,0,0.01,0h128.67c0.003,0,0.006,0,0.01,0s0.006,0,0.01,0h280.291c0.003,0,0.006,0,0.01,0    s0.006,0,0.01,0h15.585c0.224,0,0.406,0.182,0.406,0.406V496.595z"/>
		<path d="M231.224,407.5h219.244c7.101,0,12.878-5.777,12.878-12.878v-39.244c0-7.101-5.777-12.878-12.878-12.878h-1.967v-95.376    c0-9.649-7.851-17.5-17.5-17.5H250.69c-9.649,0-17.5,7.851-17.5,17.5V342.5h-1.967c-7.101,0-12.878,5.777-12.878,12.878v39.244    C218.346,401.724,224.123,407.5,231.224,407.5z M248.19,247.124c0-1.378,1.122-2.5,2.5-2.5h180.311c1.378,0,2.5,1.122,2.5,2.5    V342.5h-30.102c-4.142,0-7.5,3.358-7.5,7.5s3.358,7.5,7.5,7.5h44.946v35h-215v-35H375.4c4.142,0,7.5-3.358,7.5-7.5    s-3.358-7.5-7.5-7.5H248.19V247.124z"/>
	</g>
</g>















</svg>
