<svg height="511pt" viewBox="0 0 511 511.99924" width="511pt" xmlns="http://www.w3.org/2000/svg"><path d="m158.621094 309.9375-91.167969 91.167969c-4.53125 4.53125-11.261719 5.84375-17.292969 3.664062-13.5625-4.910156-28.863281-2.296875-39.210937 8.050781-14.578125 14.578126-13.808594 38.988282 1.722656 54.519532 4.742187 4.742187 10.316406 8.101562 16.183594 10.074218 2.925781.980469 5.246093 3.304688 6.230469 6.230469 1.96875 5.867188 5.328124 11.4375 10.074218 16.179688 15.53125 15.53125 39.9375 16.304687 54.515625 1.726562 10.351563-10.351562 12.964844-25.652343 8.054688-39.214843-2.183594-6.027344-.871094-12.761719 3.664062-17.292969l91.167969-91.167969zm0 0" fill="#f8eed1"/><path d="m158.621094 309.9375-61.523438 61.527344c4.789063 9.050781 10.953125 17.519531 18.683594 25.25 7.730469 7.730468 16.203125 13.898437 25.253906 18.6875l61.527344-61.527344zm0 0" fill="#f0e3c0"/><path d="m455.097656 295.558594c-62.753906 62.753906-231.785156 160.289062-315.117187 76.957031-83.328125-83.328125 14.207031-252.363281 76.960937-315.113281zm0 0" fill="#ad9386"/><path d="m455.097656 295.558594c-48.8125 48.8125-128.238281 48.8125-177.050781 0l-61.105469-61.105469c-48.816406-48.8125-48.816406-128.238281 0-177.050781l20.789063-20.792969c48.8125-48.8125 128.238281-48.8125 177.050781 0l61.109375 61.105469c48.8125 48.8125 48.8125 128.242187 0 177.054687zm0 0" fill="#ddaf89"/><path d="m451 249.875-20.792969 20.792969c-35.144531 35.144531-92.125 35.144531-127.269531 0l-61.105469-61.105469c-35.144531-35.144531-35.144531-92.125 0-127.269531l20.789063-20.792969c35.148437-35.144531 92.125-35.144531 127.273437 0l61.105469 61.105469c35.144531 35.144531 35.144531 92.125 0 127.269531zm0 0" fill="#d97b7d"/><path d="m459.152344 240.488281c3.761718-4.964843 6.949218-10.226562 9.542968-15.703125-5.6875-11.320312-13.148437-20.722656-20.140624-29.53125-10.214844-12.867187-19.867188-25.023437-22.339844-41.003906-2.046875-13.21875.996094-28.777344 9.257812-47.167969l-11.277344-11.28125c-27.945312 57.679688-7.359374 83.621094 12.613282 108.78125 8.914062 11.230469 17.503906 22.050781 22.34375 35.90625zm0 0" fill="#f1a18f"/><path d="m289.269531 43.089844c-9.65625 4.351562-18.710937 10.476562-26.648437 18.410156l-6.46875 6.46875c-5.375 17.550781-4.113282 37.5 3.925781 62.441406 6.136719 19.03125 1.257813 37.800782-13.386719 51.496094-5.269531 4.925781-11.394531 8.734375-17.792968 11.292969 2.671874 4.324219 5.738281 8.472656 9.214843 12.390625 6.742188-3.152344 13.144531-7.417969 18.824219-12.726563 18.78125-17.5625 25.292969-42.632812 17.417969-67.054687-11.742188-36.417969-8.246094-59.679688 14.914062-82.71875zm0 0" fill="#f1a18f"/><path d="m373.566406 138.929688c-17.125-17.125-43.164062-18.851563-58.164062-3.851563-14.996094 14.996094-13.273438 41.039063 3.855468 58.164063 17.125 17.125 43.164063 18.847656 58.160157 3.851562 15-14.996094 13.273437-41.039062-3.851563-58.164062zm0 0" fill="#f8eed1"/><path d="m28.855469 477.414062c2.925781.980469 5.246093 3.304688 6.230469 6.230469 1.96875 5.867188 5.328124 11.441407 10.074218 16.183594 15.53125 15.53125 39.9375 16.300781 54.515625 1.722656.445313-.445312.859375-.910156 1.273438-1.375-55.460938-9.765625-59.972657-62.199219-57.609375-97.199219-11.652344-2.023437-23.75 1.203126-32.390625 9.84375-14.578125 14.582032-13.808594 38.988282 1.722656 54.519532 4.742187 4.746094 10.316406 8.101562 16.183594 10.074218zm0 0" fill="#f0e3c0"/><g fill="#998377"><path d="m143.402344 162.011719c-36.808594 72.3125-55.671875 158.253906-3.421875 210.503906 28.554687 28.554687 67.167969 35.867187 108.117187 30.625-111.128906-31.421875-120.882812-147.992187-104.695312-241.128906zm0 0"/><path d="m188.574219 313.015625c-4.140625 0-7.5-3.359375-7.5-7.5v-34.230469c0-4.144531 3.359375-7.5 7.5-7.5 4.144531 0 7.5 3.355469 7.5 7.5v34.230469c0 4.140625-3.355469 7.5-7.5 7.5zm0 0"/><path d="m225.113281 382.039062c-4.140625 0-7.5-3.359374-7.5-7.5v-51.136718c0-4.140625 3.359375-7.5 7.5-7.5s7.5 3.359375 7.5 7.5v51.136718c0 4.140626-3.359375 7.5-7.5 7.5zm0 0"/><path d="m291.355469 359.949219h-19.828125c-4.144532 0-7.5-3.355469-7.5-7.5 0-4.140625 3.355468-7.5 7.5-7.5h19.828125c4.140625 0 7.5 3.359375 7.5 7.5 0 4.144531-3.359375 7.5-7.5 7.5zm0 0"/></g></svg>