<?xml version="1.0" encoding="iso-8859-1"?>
<!-- Generator: Adobe Illustrator 19.0.0, SVG Export Plug-In . SVG Version: 6.00 Build 0)  -->
<svg version="1.1" id="Capa_1" xmlns="http://www.w3.org/2000/svg" xmlns:xlink="http://www.w3.org/1999/xlink" x="0px" y="0px"
	 viewBox="0 0 464 464" style="enable-background:new 0 0 464 464;" xml:space="preserve">
<path style="fill:#89B140;" d="M344,150.768c0-12.968-17.184-23.472-32-23.472c-1.312-18.481-17.277-32.449-35.768-31.296
	c-18.488-1.149-34.448,12.818-35.76,31.296c-13.868-0.865-25.841,9.612-26.824,23.472v8.72
	c-24.195-4.918-47.795,10.708-52.713,34.903s10.708,47.795,34.903,52.713c2.918,0.593,5.889,0.893,8.867,0.896
	c18.328,0,20.392-8.224,27.296-24h112V150.768z"/>
<path style="fill:#F4CA62;" d="M227.64,197.542l14.824-28.359c8.187-15.662,27.521-21.722,43.183-13.535l0,0
	c15.662,8.187,21.722,27.521,13.535,43.183l-14.824,28.359c-8.187,15.662-27.521,21.722-43.183,13.535l0,0
	C225.513,232.538,219.453,213.204,227.64,197.542z"/>
<path style="fill:#EA9D2D;" d="M256,220.368c-4.418-0.002-7.999-3.585-7.997-8.003c0-1.289,0.312-2.559,0.909-3.701l14.824-28.36
	c2.046-3.917,6.879-5.434,10.796-3.388c3.917,2.046,5.434,6.879,3.388,10.796l-14.816,28.36
	C261.722,218.717,258.984,220.373,256,220.368L256,220.368z"/>
<path style="fill:#EAEAE8;" d="M352.616,266.776c-28.881-13.199-41.594-47.311-28.395-76.193c0.852-1.865,1.804-3.684,2.851-5.447
	l23.2-39.04c12.43-21.3,38.978-29.714,61.408-19.464l8.296,3.792c22.445,10.252,33.46,35.853,25.472,59.2l-14.352,43.072
	c-10.055,30.125-42.627,46.395-72.752,36.339C356.396,268.385,354.484,267.631,352.616,266.776z"/>
<circle style="fill:#FBB540;" cx="377.52" cy="212.208" r="28"/>
<path style="fill:#B9B9B9;" d="M136,408h192v56H136V408z"/>
<path style="fill:#D9D9D9;" d="M0.224,216C0.112,218.656,0,221.32,0,224c0,114.872,103.872,208,232,208s232-93.128,232-208
	c0-2.68-0.112-5.344-0.224-8H0.224z"/>
<path style="fill:#744630;" d="M0,22.448h464V64H0V22.448z"/>
<g>
	<path style="fill:#EAC25E;" d="M80,216H64c-0.372-11.904,2.62-23.671,8.632-33.952C77.988,172.974,80.551,162.522,80,152
		c-0.863-10.093-3.399-19.972-7.504-29.232C67.671,111.758,64.797,99.994,64,88c0.669-21.223,5.595-42.095,14.488-61.376
		c0.8-1.928,1.448-3.336,1.696-4.176L85.336,24H96c-0.328,3.12-1.281,6.143-2.8,8.888C85.134,50.182,80.644,68.928,80,88
		c0.861,10.098,3.397,19.982,7.504,29.248C92.329,128.252,95.203,140.011,96,152c0.544,13.12-2.652,26.124-9.216,37.496
		C81.991,197.482,79.634,206.693,80,216z"/>
	<path style="fill:#EAC25E;" d="M120,216h-16c-0.372-11.904,2.62-23.671,8.632-33.952c5.356-9.074,7.919-19.526,7.368-30.048
		c-0.863-10.093-3.399-19.972-7.504-29.232C107.671,111.758,104.797,99.994,104,88c0.669-21.223,5.595-42.095,14.488-61.376
		c0.8-1.928,1.448-3.336,1.696-4.176L125.336,24H136c-0.328,3.12-1.281,6.143-2.8,8.888C125.134,50.182,120.644,68.928,120,88
		c0.861,10.098,3.397,19.982,7.504,29.248c4.825,11.004,7.699,22.763,8.496,34.752c0.544,13.12-2.652,26.124-9.216,37.496
		C121.991,197.482,119.634,206.693,120,216z"/>
	<path style="fill:#EAC25E;" d="M40,216H24c-0.372-11.904,2.62-23.671,8.632-33.952C37.988,172.974,40.551,162.522,40,152
		c-0.863-10.093-3.399-19.972-7.504-29.232C27.671,111.758,24.797,99.994,24,88c0.669-21.223,5.595-42.095,14.488-61.376
		c0.8-1.928,1.448-3.336,1.696-4.176L45.336,24H56c-0.328,3.12-1.281,6.143-2.8,8.888C45.134,50.182,40.644,68.928,40,88
		c0.861,10.098,3.397,19.982,7.504,29.248C52.329,128.252,55.203,140.011,56,152c0.544,13.12-2.652,26.124-9.216,37.496
		C41.991,197.482,39.634,206.693,40,216z"/>
</g>
<path style="fill:#B94137;" d="M446.192,304c2.4-5.224,4.608-10.568,6.568-16H416v-32h-64v32h-48v-32h-64v32h-32v-32h-64v32h-32v-32
	H48v32H11.24c1.96,5.432,4.136,10.776,6.568,16H64v-32h32v32h64v-32h32v32h64v-32h32v32h80v-32h32v32H446.192z"/>
<path style="fill:#8F563B;" d="M0,0h464v32H0V0z"/>
<g>
</g>
<g>
</g>
<g>
</g>
<g>
</g>
<g>
</g>
<g>
</g>
<g>
</g>
<g>
</g>
<g>
</g>
<g>
</g>
<g>
</g>
<g>
</g>
<g>
</g>
<g>
</g>
<g>
</g>
</svg>
